# xmcd
#
# Track frame offsets:
#	150
#	16914
#	32028
#	48929
#	63751
#	87952
#	111442
#	134532
#	157754
#	178639
#	201758
#	229788
#	255070
#	279803
#	300414
#	320063
#
# Disc length: 4502 seconds
#
# Revision: 0
# Processed by: cddbd v1.5.2PL0 Copyright (c) Steve Scherf et al.
# Submitted via: EasyCDDAExtractor 11.0.2.1
#
DISCID=c4119410
DTITLE=Various Artist - Generationext House2hard Vol. 2 [CD2]
DYEAR=2008
DGENRE=Electronic
TTITLE0=John Dahlback - Blink
TTITLE1=Miles Dyson - Track From Hell
TTITLE2=Gustavo Assis - Move On
TTITLE3=deadmau5 vs Jelo - The Reward Is Cheese
TTITLE4=Visionare - Dizzy Heights
TTITLE5=Wendel Kos - Whoo?!
TTITLE6=Dario Onic - Straight Forward
TTITLE7=tyDi vs Dr Willis - Saturday Night Fever
TTITLE8=David Forbes - Rescue
TTITLE9=Wardt - Show My Shuffle
TTITLE10=Sander Van Doorn - Riff
TTITLE11=Dr Willis - Da Slam (Gleave Remix)
TTITLE12=DJ Wag - Feeling Good (Instrumental Mix)
TTITLE13=Odessa Soundfreaks - Blow Your Ears (Pedro Delgardo and Tina Martin Rem
TTITLE13=ix)
TTITLE14=Kamui - Electro Slut
TTITLE15=Dr Willis vs Dark by Design - God Of Abraham
EXTD=
EXTT0=
EXTT1=
EXTT2=
EXTT3=
EXTT4=
EXTT5=
EXTT6=
EXTT7=
EXTT8=
EXTT9=
EXTT10=
EXTT11=
EXTT12=
EXTT13=
EXTT14=
EXTT15=
PLAYORDER=
